<?xml version="1.0" standalone="no"?>
<!DOCTYPE svg PUBLIC "-//W3C//DTD SVG 20010904//EN"
 "http://www.w3.org/TR/2001/REC-SVG-20010904/DTD/svg10.dtd">
<svg version="1.0" xmlns="http://www.w3.org/2000/svg"
 width="512.000000pt" height="512.000000pt" viewBox="0 0 512.000000 512.000000"
 preserveAspectRatio="xMidYMid meet">

<g transform="translate(0.000000,512.000000) scale(0.100000,-0.100000)"
fill="#000000" stroke="none">
<path d="M2325 5109 c-481 -49 -924 -221 -1304 -505 -55 -41 -94 -77 -97 -91
-10 -38 4 -72 37 -88 28 -15 33 -15 64 2 18 10 78 50 132 89 578 420 1353 560
2038 368 414 -116 761 -319 1065 -624 278 -277 462 -574 585 -945 154 -462
165 -959 30 -1423 -32 -109 -32 -146 -3 -166 30 -21 81 -20 101 2 9 9 27 58
42 107 210 723 96 1505 -309 2119 -411 626 -1048 1032 -1788 1142 -126 18
-470 26 -593 13z"/>
<path d="M703 4318 c-65 -62 -191 -216 -261 -320 -223 -330 -367 -712 -423
-1118 -20 -143 -18 -527 4 -670 90 -586 331 -1065 738 -1467 63 -62 155 -145
204 -185 619 -494 1438 -673 2210 -482 714 177 1330 664 1658 1311 60 119 62
124 47 150 -9 16 -28 34 -42 41 -49 23 -70 4 -136 -123 -330 -628 -907 -1077
-1592 -1240 -640 -152 -1325 -29 -1874 335 -858 571 -1258 1591 -1015 2590 94
384 300 766 571 1057 47 51 58 69 58 97 0 25 -7 40 -26 55 -40 31 -60 26 -121
-31z"/>
</g>
</svg>
